<svg xmlns="http://www.w3.org/2000/svg" width="50.487" height="50.488" viewBox="0 0 50.487 50.488"><defs><style>.a{fill:#222221;}.b{fill:#fff;}</style></defs><path class="a" d="M19.031,0H31.457a19.03,19.03,0,0,1,19.03,19.03V31.457a19.03,19.03,0,0,1-19.03,19.03H19.03A19.03,19.03,0,0,1,0,31.457V19.031A19.031,19.031,0,0,1,19.031,0Z" transform="translate(0 0)"/><g transform="translate(11.012 16.184)"><path class="b" d="M165.156,212.067a4.864,4.864,0,0,0,3.249-2.278,5.165,5.165,0,0,0,.787-2.819,4.685,4.685,0,0,0-.687-2.589,3.941,3.941,0,0,0-2.043-1.56,4.243,4.243,0,0,0,1.349-1.007,3.94,3.94,0,0,0,.818-2.6,4.5,4.5,0,0,0-.812-2.7q-1.349-1.835-4.58-1.882h-8.544v17.676h7.966A12.2,12.2,0,0,0,165.156,212.067ZM158.219,197.7h3.845a6.647,6.647,0,0,1,2.089.276,1.584,1.584,0,0,1,.95,1.63,1.669,1.669,0,0,1-.719,1.553,3.547,3.547,0,0,1-1.869.438h-4.3Zm0,11.537v-4.712h4.351a4.435,4.435,0,0,1,1.767.3,1.9,1.9,0,0,1,1.126,1.894,2.227,2.227,0,0,1-1.162,2.207,4.166,4.166,0,0,1-1.789.312Z" transform="translate(-154.693 -194.631)"/><g transform="translate(15.499 1.016)"><path class="b" d="M168.371,210.094a7.12,7.12,0,0,0,4.6,1.609,6.347,6.347,0,0,0,4.917-1.908,4.264,4.264,0,0,0,1.267-2.362H175.67a2.859,2.859,0,0,1-.7.9,2.893,2.893,0,0,1-1.9.6,3.456,3.456,0,0,1-1.884-.492,3.132,3.132,0,0,1-1.368-2.758h9.52a16.89,16.89,0,0,0-.113-2.595,6.426,6.426,0,0,0-1.041-2.7,5.294,5.294,0,0,0-2.26-1.934,7.423,7.423,0,0,0-3.073-.613,6.3,6.3,0,0,0-4.673,1.813,7.073,7.073,0,0,0-1.8,5.208Q166.377,208.487,168.371,210.094Zm2.442-8.69a2.714,2.714,0,0,1,2.039-.745,3.005,3.005,0,0,1,2.028.7,2.85,2.85,0,0,1,.91,2.065H169.9A3.562,3.562,0,0,1,170.813,201.4Z" transform="translate(-166.377 -194.599)"/><rect class="b" width="7.681" height="1.784" transform="translate(2.411)"/></g></g></svg>