<svg xmlns="http://www.w3.org/2000/svg" width="52.633" height="39.965" viewBox="0 0 52.633 39.965"><defs><style>.a{fill:#fff;}.b{fill:#d72b27;}.c{stroke:#000;stroke-miterlimit:10;}.d{fill:#e4e5e6;}.d,.e{mix-blend-mode:multiply;isolation:isolate;}.e{fill:#eff0f0;}</style></defs><g transform="translate(-543.492 -500.429)"><g transform="translate(543.504 502.504)"><path class="a" d="M595.8,502.284a3.322,3.322,0,0,1-1.148,3.971l-24.8,17.6-.045-.064-.045.064-24.8-17.6a3.323,3.323,0,0,1-1.149-3.971,3.493,3.493,0,0,0-.31,1.435V536.6a3.5,3.5,0,0,0,3.5,3.5H592.61a3.5,3.5,0,0,0,3.5-3.5V503.719A3.468,3.468,0,0,0,595.8,502.284Z" transform="translate(-543.504 -502.284)"/></g><path class="b" d="M547,500.441a3.5,3.5,0,0,0-3.5,3.5v32.877a3.5,3.5,0,0,0,3.5,3.5h3.149V500.441Z" transform="translate(0 0)"/><path class="c" d="M546.95,539.773a3.012,3.012,0,0,1-3.01-3.009V503.886a3.012,3.012,0,0,1,3.01-3.009h2.661v38.9Z" transform="translate(0.052 0.052)"/><path class="b" d="M587.715,500.441h-3.149v39.872h3.149a3.5,3.5,0,0,0,3.5-3.5V503.938A3.5,3.5,0,0,0,587.715,500.441Z" transform="translate(4.894 0)"/><path class="c" d="M585,539.773v-38.9h2.661a3.012,3.012,0,0,1,3.008,3.009v32.877a3.012,3.012,0,0,1-3.008,3.009Z" transform="translate(4.946 0.052)"/><path class="b" d="M595.428,501.841a3.324,3.324,0,0,0-4.633-.787l-21,14.9-20.995-14.9a3.324,3.324,0,0,0-4.633.787h0a3.323,3.323,0,0,0,.787,4.634l24.8,17.6.045-.064.045.064,24.8-17.6A3.324,3.324,0,0,0,595.428,501.841Z" transform="translate(0.006 0)"/><path class="c" d="M569.747,523.116l-.16.226-24.4-17.318a2.835,2.835,0,1,1,3.283-4.623l21.277,15.1,21.278-15.1a2.835,2.835,0,0,1,3.283,4.623l-24.4,17.318Z" transform="translate(0.058 0.052)"/><path class="a" d="M548.441,501.054l20.995,14.9,21-14.9a3.315,3.315,0,0,1,1.837-.612H546.6A3.318,3.318,0,0,1,548.441,501.054Z" transform="translate(0.369 0)"/><path class="d" d="M578.558,540h13.824a3.5,3.5,0,0,0,3.5-3.5v-32.74l-.077,0a3.31,3.31,0,0,1-1.381,2.393l-24.8,17.6-.045-.064-.045.064-23.966-17.012Z" transform="translate(0.246 0.396)"/><path class="e" d="M569.142,523.041l-19.7,16.238V509.122Z" transform="translate(0.708 1.035)"/></g></svg>