<svg xmlns="http://www.w3.org/2000/svg" width="1128.181" height="796.926" viewBox="0 0 1128.181 796.926"><defs><style>.a{fill:#fbfbfb;}.b{fill:none;stroke:#ccc49a;stroke-linecap:round;stroke-linejoin:round;stroke-width:1.75px;}</style></defs><g transform="translate(364.133 -429.447)"><g transform="translate(7.839 765.163) rotate(-36)"><path class="a" d="M396.458,401.43c45.285,37.291,104.157,53.418,161.871,63.932,12.673,2.309,25.436,4.407,37.713,8.307a133.655,133.655,0,0,1,39.073,19.989" transform="translate(-364.392 -355.515)"/><path class="a" d="M404.675,413.422a56.538,56.538,0,0,1-32.143-46.252c9.72,4.093,19.929,8.623,26.012,17.238,5.984,8.475,6.913,19.4,7.644,29.752q-.2-.694-.4-1.387" transform="translate(-372.532 -367.17)"/><path class="a" d="M430.216,435.622A53.8,53.8,0,0,1,409.969,402.5c-1.663-9.393-.777-19.054-1.815-28.537l12.491,11.69a47.678,47.678,0,0,1,5.6,5.878c2.97,3.924,4.645,8.651,6.276,13.295a19.009,19.009,0,0,1,1.352,5.641,23.693,23.693,0,0,1-1.291,6.761,48.029,48.029,0,0,0-1.228,18.622" transform="translate(-360.414 -364.859)"/><path class="a" d="M464.485,445.847c-6.915-9.45-18.523-14.884-24.569-24.912-4.35-7.216-5.3-15.981-8.845-23.622q7.028,3.249,13.793,7.025c5.268,2.942,10.593,6.3,13.8,11.412,5.5,8.784,3.446,20.437,7.536,29.961l-1.283-.781" transform="translate(-352.617 -356.915)"/><path class="a" d="M447.153,424.355a78.464,78.464,0,0,0-68.421,2.1c9.926,1.837,18.91,7.833,28.988,8.42,6.6.383,13.151-1.6,19.753-1.308a19.55,19.55,0,0,0,5.228-.076,14.612,14.612,0,0,0,4.99-2.627l8.758-6.178" transform="translate(-370.423 -350.044)"/><path class="a" d="M478.856,424.219c15.4,13.724,31.617,27.891,51.587,33.072" transform="translate(-336.361 -347.762)"/><path class="a" d="M488.573,436.591c-4.613.2-8.888-2.223-12.824-4.634-5.057-3.1-10.173-6.424-13.6-11.259-2.947-4.153-4.441-9.135-5.889-14.018q-2.048-6.907-4.094-13.817c19.074,5.225,34.076,22.9,36.129,42.574" transform="translate(-345.441 -358.43)"/><path class="a" d="M474.613,414.712a31.016,31.016,0,0,1,2.935-21.809c2.908,4.864,7.5,8.66,9.81,13.833a18.213,18.213,0,0,1,1.316,10.447,36.185,36.185,0,0,1-2.907,8.379q-2.479,5.613-4.956,11.225" transform="translate(-338.08 -358.416)"/><path class="a" d="M491.132,420.4A66.172,66.172,0,0,0,516.3,453.973a12.982,12.982,0,0,0,5.854,2.6" transform="translate(-332.185 -349.061)"/><path class="a" d="M541.025,464.959c-11-1.34-20.8-8.281-27.371-17.2s-10.22-19.683-12.492-30.53a25.547,25.547,0,0,1-.65-4.586,2.627,2.627,0,0,1,.343-1.615c.611-.851,1.886-.784,2.907-.547,7.5,1.752,13.382,7.754,17.185,14.454s5.924,14.2,8.73,21.371,6.511,14.313,12.6,19.039" transform="translate(-328.995 -352.489)"/><path class="a" d="M571.289,479.255A103.478,103.478,0,0,1,539.852,456.5,73.03,73.03,0,0,1,528.2,440.6a77.366,77.366,0,0,1-7.171-22.029,122.534,122.534,0,0,1-1.928-17.014c10.212,6.445,22.333,10.2,30.788,18.822,7.807,7.959,11.447,19.046,14.122,29.869s4.717,22.023,10.195,31.735" transform="translate(-322.671 -355.47)"/><path class="a" d="M523.918,408.3c5.188,6.141,8.06,13.84,11.472,21.119a142.2,142.2,0,0,0,35.3,46.763" transform="translate(-321.031 -353.176)"/><path class="a" d="M467.553,434.231a53.445,53.445,0,0,0-40.3,9.141" transform="translate(-353.915 -344.634)"/><path class="a" d="M430.912,440.971a24.853,24.853,0,0,0-8.844,23.474c3.239-.768,5.668-3.372,7.891-5.849a30.553,30.553,0,0,0,5.613-7.76,55.877,55.877,0,0,0,2.187-7.506c.84-2.965-.566-3.955,1.049-6.579" transform="translate(-355.807 -343.499)"/><path class="a" d="M446.463,436.079c-5.695.641-11.63,1.253-17.012-.71-2.095-.765-4.05-1.9-6.2-2.5a15.643,15.643,0,0,1,12.394-2.8,20.75,20.75,0,0,1,11.169,6.4" transform="translate(-355.277 -345.866)"/><path class="a" d="M487,439.189a9.333,9.333,0,0,0-5.136-.276c-3.636.488-7.271.977-10.886,1.593-7.6,1.3-15.246,3.215-21.776,7.31-6.861,4.3-12.07,10.728-17.145,17.035,7.1,1.646,14.541,3.29,21.6,1.458,2.376-.617,4.636-1.614,6.988-2.319,2.93-.878,6.046-1.317,8.7-2.847A20.021,20.021,0,0,0,474.6,456.3a63.808,63.808,0,0,0,6.374-9.353c1.635-2.926,3.245-6.19,6.267-7.64" transform="translate(-352.28 -342.838)"/><path class="a" d="M469.414,469.216c3.617-.685,6.579-3.176,9.468-5.459a127.823,127.823,0,0,1,31.361-18.212" transform="translate(-339.573 -340.507)"/><path class="a" d="M530.747,448.131c-16.6,3.3-33.128,9.395-45.569,20.863a108.465,108.465,0,0,0-10.5,11.566q-3.625,4.465-7.1,9.046c10.254-4.109,22.037-2.646,32.411-6.442a39.856,39.856,0,0,0,15.9-11.2,62.529,62.529,0,0,0,10.258-16.66c1.079-2.483,2.164-5.175,4.425-6.665" transform="translate(-340.198 -339.627)"/><path class="a" d="M544.2,452.757A89.549,89.549,0,0,1,510.175,480.1" transform="translate(-325.706 -338.053)"/><path class="a" d="M524.041,473.088a53.843,53.843,0,0,0-53.091,23.129c7.135-1.514,14.537-.737,21.818-1.193,6.976-.436,13.988-2.063,19.981-5.66s10.886-9.313,12.6-16.09" transform="translate(-339.05 -331.359)"/><path class="a" d="M468.992,486.894c7.246-4.92,15.072-8.911,22.608-13.374,8.079-4.786,15.821-10.115,23.555-15.438a111.636,111.636,0,0,0,12.571-9.557" transform="translate(-339.716 -339.493)"/><path class="a" d="M508.546,419.3c4.362,7.263,7.578,15.151,11.583,22.616s8.969,14.67,15.932,19.5" transform="translate(-326.26 -349.435)"/><path class="a" d="M572.727,460.231c-3.734-.986-7.71.11-11.232,1.694-11.183,5.03-19.508,14.659-27.453,24q-9.41,11.057-18.818,22.115c4.763-.543,9.588.035,14.372-.285,11.685-.783,22.605-7.024,30.464-15.707s12.394-18.586,15.458-29.89" transform="translate(-323.988 -335.638)"/><path class="a" d="M518.021,506.141c9.078-7.253,20.126-11.676,29.375-18.709,9.631-7.324,16.958-17.195,24.148-26.925" transform="translate(-323.037 -335.417)"/><path class="a" d="M531.539,463.109c-6.98,8.106-14.021,16.542-17.483,26.662a18.053,18.053,0,0,0-1.2,6.866c.058.934.513,2.107,1.447,2.061a1.754,1.754,0,0,0,.867-.358c2.757-1.856,4.082-5.2,4.941-8.407a82.143,82.143,0,0,0,1.823-9.328,23.982,23.982,0,0,1,1.414-6.106,22.447,22.447,0,0,1,2.969-4.612q3.09-4.035,6.189-8.063-.171.38-.34.761" transform="translate(-324.8 -334.969)"/><path class="a" d="M490.61,454.448c-4.707-.444-9.317,1.281-13.729,2.977-2.313.889-4.713,1.835-6.389,3.661-1.229,1.34-1.971,3.057-3.12,4.466a43.851,43.851,0,0,1-3.423,3.306,17.561,17.561,0,0,0-3.915,5.815c.775,1.665,3.17,1.49,4.94,1.009,5.752-1.565,11.471-3.631,16.277-7.157s8.647-8.686,9.538-14.579" transform="translate(-342.764 -337.649)"/><path class="a" d="M502.314,442.721c-4.38-1.332-8.969-3.1-11.6-6.844-3.05-4.333-2.69-10.128-2.028-15.385q.484-3.834,1.094-7.651a1.88,1.88,0,0,1,.339-.953,1.445,1.445,0,0,1,1.011-.424,4.34,4.34,0,0,1,3.5,1.819,28.059,28.059,0,0,1,2.1,3.522c1.118,1.9,2.628,3.554,3.672,5.5a24.954,24.954,0,0,1,2.243,7.642,44.6,44.6,0,0,1,.834,7.973,25.246,25.246,0,0,1-.525,4.9" transform="translate(-333.173 -352.104)"/><path class="a" d="M456.113,397.3c13.335,8.319,18.113,25.639,30.642,35.127a63.374,63.374,0,0,0,.626-20.091,126.612,126.612,0,0,0-3.125-14.8" transform="translate(-344.098 -356.921)"/><path class="a" d="M433.916,464.535c6.047-1.3,11.424-4.66,17.187-6.9,4.575-1.782,9.415-2.872,13.875-4.925,6.852-3.154,12.475-8.414,17.967-13.586" transform="translate(-351.649 -342.693)"/><path class="a" d="M432.724,398.924c4.4,6.173,10.467,10.944,15.372,16.722,6.9,8.134,11.321,18.038,15.644,27.793" transform="translate(-352.055 -356.367)"/><path class="a" d="M422.525,463.184a204.365,204.365,0,0,1,15.466-25.726" transform="translate(-355.524 -343.258)"/><path class="a" d="M425.485,432.118a38.741,38.741,0,0,1,9.708.37c3.137.655,6.106,2.089,9.3,2.4" transform="translate(-354.518 -345.118)"/><path class="a" d="M409.184,376.079a79.75,79.75,0,0,1,6.673,16.21c1.571,5.83,2.164,11.888,3.728,17.719,2.293,8.544,6.606,16.384,10.88,24.129" transform="translate(-360.063 -364.139)"/><path class="a" d="M381.762,424.456c5.96-1.69,12.263-1.571,18.457-1.438l15.454.331c2.675.058,5.351.115,8.028.126q10.4.044,20.772-.838" transform="translate(-369.392 -348.3)"/><path class="a" d="M373.429,367.938c3.294,5.819,8.249,10.5,12.239,15.864,7.06,9.5,11.188,21.256,19.917,29.249-.3-.206-.6-.413-.9-.621" transform="translate(-372.227 -366.909)"/><path class="a" d="M473.129,494.788q2.8-1.564,5.6-3.125a49.015,49.015,0,0,1,7.508-3.651c3.883-1.371,8.036-1.745,12.044-2.684,9-2.105,17.05-6.993,24.934-11.808" transform="translate(-338.309 -330.99)"/></g><g transform="translate(-362.911 881.58) rotate(-36)"><path class="b" d="M396.458,401.43c167.217,137.7,384.6,197.246,597.711,236.069,46.8,8.526,93.922,16.271,139.257,30.672a493.52,493.52,0,0,1,144.28,73.81" transform="translate(-278.055 -231.887)"/><path class="b" d="M491.222,537.955c-66.11-30.311-113.33-98.257-118.69-170.785,35.893,15.113,73.587,31.84,96.05,63.65,22.1,31.3,25.525,71.643,28.227,109.861q-.735-2.561-1.475-5.122" transform="translate(-372.532 -367.17)"/><path class="b" d="M489.62,601.643a198.65,198.65,0,0,1-74.765-122.307c-6.141-34.686-2.87-70.356-6.7-105.373l46.122,43.167c7.3,6.839,14.653,13.723,20.691,21.705,10.966,14.49,17.152,31.944,23.175,49.091,2.375,6.765,4.775,13.664,4.993,20.829.262,8.5-2.563,16.751-4.766,24.966a177.349,177.349,0,0,0-4.533,68.762" transform="translate(-231.871 -340.35)"/><path class="b" d="M554.452,576.526c-25.535-34.893-68.4-54.96-90.72-91.987-16.063-26.644-19.552-59.009-32.661-87.226q25.951,12,50.932,25.941c19.453,10.863,39.115,23.259,50.942,42.139,20.324,32.434,12.723,75.463,27.826,110.633q-2.368-1.44-4.736-2.885" transform="translate(-141.378 -248.144)"/><path class="b" d="M631.379,442.782c-79.4-36.274-175.62-33.325-252.647,7.745,36.65,6.784,69.827,28.925,107.041,31.093,24.358,1.415,48.562-5.914,72.939-4.83,6.453.287,13.01,1.158,19.305-.282,6.814-1.554,12.713-5.671,18.424-9.7q16.168-11.4,32.34-22.813" transform="translate(-348.05 -168.385)"/><path class="b" d="M478.856,424.219c56.881,50.675,116.745,102.988,190.486,122.12" transform="translate(47.311 -141.9)"/><path class="b" d="M586.606,554.334c-17.033.738-32.82-8.21-47.354-17.113-18.672-11.432-37.566-23.719-50.225-41.574-10.882-15.336-16.4-33.73-21.745-51.763q-7.564-25.506-15.118-51.021c70.43,19.295,125.826,84.574,133.407,157.206" transform="translate(-58.088 -265.72)"/><path class="b" d="M476.8,473.433a114.528,114.528,0,0,1,10.838-80.53c10.739,17.959,27.678,31.979,36.224,51.081a67.25,67.25,0,0,1,4.86,38.575c-1.851,10.788-6.31,20.928-10.734,30.939q-9.153,20.725-18.3,41.45" transform="translate(27.352 -265.558)"/><path class="b" d="M491.132,420.4a244.342,244.342,0,0,0,92.927,123.97c6.567,4.513,13.678,8.819,21.616,9.615" transform="translate(95.786 -156.98)"/><path class="b" d="M650.114,612.068c-40.614-4.948-76.8-30.578-101.067-63.522s-37.739-72.682-46.127-112.732a94.329,94.329,0,0,1-2.4-16.935c-.055-2.068.064-4.281,1.267-5.963,2.257-3.142,6.963-2.895,10.734-2.019,27.7,6.468,49.413,28.633,63.457,53.372s21.873,52.422,32.236,78.912,24.041,52.852,46.513,70.3" transform="translate(132.812 -196.772)"/><path class="b" d="M711.819,688.448a382.094,382.094,0,0,1-116.082-84.034c-16.677-17.721-31.716-37.145-43.039-58.687-13.317-25.338-21.279-53.194-26.48-81.342a452.454,452.454,0,0,1-7.121-62.824c37.709,23.8,82.465,37.665,113.687,69.5,28.826,29.39,42.267,70.326,52.145,110.292s17.419,81.322,37.645,117.181" transform="translate(206.207 -231.37)"/><path class="b" d="M523.918,408.3c19.156,22.675,29.762,51.105,42.361,77.982A525.071,525.071,0,0,0,696.623,658.961" transform="translate(225.248 -204.744)"/><path class="b" d="M576.058,436.434a197.346,197.346,0,0,0-148.8,33.755" transform="translate(-156.447 -105.598)"/><path class="b" d="M455.733,452.334c-25.451,20.112-38.506,54.772-32.657,86.677,11.961-2.836,20.928-12.451,29.138-21.6,7.908-8.814,15.945-17.82,20.725-28.653,3.895-8.814,5.453-18.449,8.076-27.718,3.1-10.947-2.088-14.6,3.875-24.293" transform="translate(-178.407 -92.414)"/><path class="b" d="M508.959,453.011c-21.027,2.365-42.945,4.627-62.819-2.623-7.735-2.826-14.955-7.032-22.888-9.229,12.688-9.942,29.92-13.287,45.766-10.333s30.257,11.852,41.243,23.65" transform="translate(-172.253 -119.898)"/><path class="b" d="M634.94,440.528c-5.835-2.677-12.6-1.876-18.964-1.02-13.426,1.8-26.847,3.608-40.2,5.884-28.054,4.786-56.3,11.872-80.407,26.991-25.333,15.88-44.568,39.615-63.309,62.9,26.223,6.077,53.693,12.149,79.748,5.384,8.774-2.276,17.117-5.958,25.8-8.561,10.818-3.241,22.324-4.865,32.107-10.511,7.661-4.419,13.787-11.05,19.4-17.885a235.615,235.615,0,0,0,23.536-34.537c6.038-10.8,11.981-22.858,23.14-28.213" transform="translate(-137.465 -84.75)"/><path class="b" d="M469.414,532.949c13.356-2.529,24.293-11.729,34.963-20.156a471.99,471.99,0,0,1,115.8-67.248" transform="translate(10.027 -57.69)"/><path class="b" d="M700.834,448.131c-61.279,12.183-122.327,34.69-168.266,77.036-14.148,13.045-26.644,27.767-38.768,42.708q-13.384,16.487-26.223,33.4c37.863-15.173,81.372-9.769,119.68-23.788,22.71-8.314,42.678-23.244,58.7-41.352s28.252-39.337,37.878-61.517c3.984-9.17,7.992-19.107,16.341-24.61" transform="translate(2.774 -47.478)"/><path class="b" d="M635.823,452.757A330.66,330.66,0,0,1,510.175,553.726" transform="translate(170.981 -29.211)"/><path class="b" d="M666.989,474.844a198.818,198.818,0,0,0-196.039,85.4c26.347-5.592,53.679-2.722,80.565-4.4,25.758-1.608,51.65-7.616,73.781-20.9s40.2-34.389,46.508-59.414" transform="translate(16.093 48.493)"/><path class="b" d="M468.992,590.2c26.758-18.167,55.653-32.9,83.48-49.383,29.831-17.672,58.419-37.348,86.979-57,16.024-11.03,32.112-22.106,46.419-35.289" transform="translate(8.361 -45.918)"/><path class="b" d="M508.546,419.3c16.108,26.817,27.98,55.945,42.772,83.51s33.117,54.169,58.83,71.989" transform="translate(164.548 -161.32)"/><path class="b" d="M727.554,461.241c-13.787-3.642-28.47.406-41.475,6.255-41.292,18.573-72.033,54.129-101.369,88.612q-34.748,40.827-69.485,81.659c17.588-2,35.4.129,53.07-1.054,43.148-2.89,83.47-25.936,112.489-58s45.766-68.629,57.079-110.371" transform="translate(190.918 -1.179)"/><path class="b" d="M518.021,629.011c33.523-26.783,74.315-43.113,108.466-69.084,35.561-27.045,62.616-63.492,89.166-99.42" transform="translate(201.963 1.391)"/><path class="b" d="M581.888,466.566c-25.773,29.93-51.773,61.082-64.556,98.45-2.791,8.17-4.939,16.737-4.414,25.352.213,3.449,1.9,7.779,5.345,7.611a6.475,6.475,0,0,0,3.2-1.322c10.18-6.854,15.074-19.186,18.246-31.043a303.3,303.3,0,0,0,6.731-34.443c1.123-7.656,2.148-15.445,5.221-22.546,2.687-6.21,6.844-11.654,10.961-17.028q11.409-14.9,22.853-29.771-.631,1.4-1.257,2.811" transform="translate(181.501 6.596)"/><path class="b" d="M572.935,455.8c-17.38-1.638-34.4,4.731-50.695,10.991-8.542,3.281-17.4,6.775-23.59,13.52-4.538,4.949-7.28,11.288-11.521,16.489-3.706,4.543-8.462,8.1-12.639,12.208a64.847,64.847,0,0,0-14.455,21.472c2.86,6.146,11.7,5.5,18.241,3.726,21.24-5.78,42.356-13.406,60.1-26.426s31.929-32.073,35.22-53.832" transform="translate(-27.007 -24.512)"/><path class="b" d="M540.241,526.9c-16.172-4.919-33.117-11.451-42.851-25.273-11.263-16-9.932-37.4-7.488-56.811q1.789-14.156,4.038-28.252a6.943,6.943,0,0,1,1.252-3.518,5.336,5.336,0,0,1,3.731-1.564c5.038-.361,9.754,2.786,12.926,6.715s5.181,8.65,7.745,13.005c4.127,7.017,9.7,13.124,13.559,20.295,4.662,8.675,6.6,18.513,8.284,28.217,1.683,9.734,3.167,19.563,3.078,29.44a93.225,93.225,0,0,1-1.94,18.078" transform="translate(84.317 -192.296)"/><path class="b" d="M456.113,397.3C505.353,428.015,522.995,491.972,569.26,527a234.007,234.007,0,0,0,2.311-74.186c-2.385-18.469-6.968-36.576-11.541-54.634" transform="translate(-42.494 -248.203)"/><path class="b" d="M433.916,532.967c22.329-4.815,42.183-17.207,63.462-25.5,16.895-6.582,34.765-10.605,51.234-18.187,25.3-11.644,46.063-31.068,66.343-50.165" transform="translate(-130.144 -83.064)"/><path class="b" d="M432.724,398.924c16.232,22.794,38.65,40.411,56.762,61.745,25.5,30.034,41.8,66.6,57.766,102.627" transform="translate(-134.851 -241.783)"/><path class="b" d="M422.525,532.453a754.627,754.627,0,0,1,57.109-95" transform="translate(-175.124 -89.623)"/><path class="b" d="M425.485,432.458c11.981-.549,24.11-1.089,35.849,1.366,11.585,2.42,22.546,7.715,34.324,8.873" transform="translate(-163.436 -111.207)"/><path class="b" d="M409.184,376.079c10.056,19.141,19.013,38.976,24.64,59.855,5.8,21.527,7.992,43.9,13.767,65.427,8.467,31.548,24.392,60.5,40.173,89.1" transform="translate(-227.804 -331.991)"/><path class="b" d="M381.762,429.352c22.007-6.24,45.281-5.8,68.154-5.31l57.064,1.222c9.877.213,19.76.426,29.643.465q38.392.163,76.7-3.093" transform="translate(-336.085 -148.147)"/><path class="b" d="M373.429,367.938c12.164,21.487,30.459,38.763,45.192,58.578,26.07,35.072,41.312,78.487,73.543,108q-1.656-1.143-3.316-2.291" transform="translate(-368.99 -364.138)"/><path class="b" d="M473.129,552.055q10.333-5.775,20.671-11.54c8.982-5.018,18.018-10.061,27.723-13.48,14.336-5.063,29.672-6.443,44.474-9.912,33.216-7.774,62.958-25.823,92.071-43.6" transform="translate(24.697 52.772)"/></g></g></svg>