<svg xmlns="http://www.w3.org/2000/svg" width="50.487" height="50.488" viewBox="0 0 50.487 50.488"><defs><style>.a{fill:#222221;}.b{fill:#fff;}</style></defs><path class="a" d="M116.531,232.918h0a25.243,25.243,0,0,1-25.244-25.243h0a25.244,25.244,0,0,1,25.244-25.245h0a25.243,25.243,0,0,1,25.243,25.245h0A25.243,25.243,0,0,1,116.531,232.918Z" transform="translate(-91.287 -182.43)"/><g transform="translate(13.295 11.178)"><rect class="b" width="5.224" height="16.878" transform="translate(0.502 8.439)"/><path class="b" d="M104.4,197.085a3.114,3.114,0,1,0-3.089-3.115A3.1,3.1,0,0,0,104.4,197.085Z" transform="translate(-101.31 -190.857)"/><path class="b" d="M113.156,205.363c0-2.372,1.092-3.786,3.184-3.786,1.921,0,2.844,1.357,2.844,3.786v8.86h5.2V203.537c0-4.521-2.563-6.707-6.142-6.707a5.883,5.883,0,0,0-5.086,2.788v-2.272h-5.011v16.877h5.011Z" transform="translate(-99.078 -188.907)"/></g></svg>