<svg xmlns="http://www.w3.org/2000/svg" width="155.473" height="123.454" viewBox="0 0 155.473 123.454"><defs><style>.a{isolation:isolate;}.b{fill:#a79d6e;stroke:#a79d6e;}</style></defs><g class="a" transform="translate(589.584 62.73)"><g class="a"><path class="b" d="M-478.7,36.852a78.744,78.744,0,0,1-18.36-25.641,72.794,72.794,0,0,1-6.193-29.551q0-19.556,9.452-31.722A29.989,29.989,0,0,1-468.926-62.23a32,32,0,0,1,23.467,9.777,32.51,32.51,0,0,1,9.778,23.9q0,10.217-5.107,17.057T-457.844,1.434q-7.822,4.131-10.864,7.279a10.177,10.177,0,0,0-3.042,7.279q0,17.168,36.938,36.938l-4.346,7.171Q-464.58,49.889-478.7,36.852Zm-69.857,12.276a96.469,96.469,0,0,1-16.188-12.276Q-589.08,13.821-589.084-18.34q0-19.556,9.452-31.723t24.661-12.167A32.187,32.187,0,0,1-531.4-52.345a32.437,32.437,0,0,1,9.886,23.793q0,10.429-4.889,16.948T-543.672,1.434q-13.9,7.17-13.906,14.558,0,17.385,36.938,36.938l-4.345,7.171Q-540.63,53.8-548.561,49.128Z"/></g></g></svg>