<svg xmlns="http://www.w3.org/2000/svg" viewBox="0 0 1417.32 739.65"><defs><style>.cls-1{isolation:isolate;}.cls-2{fill:#fcb912;}.cls-3{fill:#ffb6bf;}.cls-20,.cls-4{fill:#fff;}.cls-5{fill:#0c1a3c;}.cls-6{fill:#ffff97;}.cls-7{fill:#f6828c;}.cls-10,.cls-15,.cls-18,.cls-8{fill:none;}.cls-8{stroke:#fff;}.cls-18,.cls-8{stroke-miterlimit:10;}.cls-19,.cls-9{fill:#1b1b3f;}.cls-10{stroke:#1b1b3f;}.cls-10,.cls-15{stroke-linecap:round;stroke-linejoin:round;}.cls-11{fill:#a0739d;opacity:0.25;}.cls-11,.cls-17{mix-blend-mode:multiply;}.cls-12{fill:#ededef;}.cls-13,.cls-17{fill:#f4885d;}.cls-14{fill:#ffca8a;}.cls-15{stroke:#f4885d;}.cls-16{fill:#e56e7d;}.cls-17{opacity:0.57;}.cls-18{stroke:#f6828c;}.cls-19{font-size:32.13px;font-family:wonderfull;}.cls-20{font-size:31.69px;}</style></defs><g class="cls-1"><g id="Capa_1" data-name="Capa 1"><path id="Trazado_393" data-name="Trazado 393" class="cls-2" d="M373.44,740.45l.65-.07Z" transform="translate(0 -0.8)"/><rect class="cls-3" width="1417.32" height="691"/><path class="cls-4" d="M1033.17,337.54c33.49,25.22,53.46,60.85,60.21,103.53,2.85,18,3.75,36.58,12.25,53.36s27,31.77,49.16,31.95c27.2.21,47.54-21.35,55.18-42.75,16.06-45,15-97.6-26.55-134-32.36-28.31-81.7-42.5-110.3-73.28-27.68-29.79-32.1-71.28-64.41-97.95-17-14.05-40.22-22.43-63.8-27.77-33.39-7.56-69.78-9.51-102.45-.17s-60.77,31.33-66.94,58.55C759.35,280.4,874,291.13,934.17,299.64,974.94,305.4,1007.9,318.51,1033.17,337.54Z" transform="translate(0 -0.8)"/><path class="cls-5" d="M817.77,221.35l-3.29-.52c-.62-.09-1.19-.18-1.63-.23a6.93,6.93,0,0,0-.79-.17c.13,0,.09.06,0,0a6.75,6.75,0,0,0-.8-.09c-.41,0-1.36-.21-2.33-.37l-3.39-.6c0,.13,0,.21.05.28.1.39.18.79.26,1.19,0,.2.08.4.11.6a1.89,1.89,0,0,1,0,.23.83.83,0,0,1,0,.15l0,0c.1.42.52,2.85.63,3.34v-.06a2.93,2.93,0,0,1,.09.72c0-.06.16.31.19.45h0c.06.22.2.69.27,1h0c.09.29.18.84.23,1.05a18.79,18.79,0,0,0,.33,1.88v.44l0,.06.44,1.37c.11.32,1-1,1-.93a.86.86,0,0,1-.17.17s.18-.15.25-.24l0-.05c.15-.2.06,0,.22-.22,0,0-.11.2-.24.35.12-.13.26-.25.28-.33s0,0,.17-.1a2.34,2.34,0,0,1,.32-.4h0c.3-.28.37-.5.65-.76l0,0c.11-.09.26-.3.43-.47,0,0-.11.08,0,0s.31-.35.46-.48l.1-.17c.64-.72,3.1-3.59,3.73-4.31l0,0Z" transform="translate(0 -0.8)"/><path class="cls-5" d="M825,230.18l-1.61,2.92-.78,1.45c-.14.19-.29.48-.42.68.08-.11.08,0,0,0-.37.65,0,0-.36.72-.19.37-.66,1.21-1.14,2.06-.69,1.2-1.39,2.42-1.71,3l.27.05c.4,0,.81.1,1.21.16l.6.09.23,0h.12c.43,0,2.85.48,3.36.54l-.07,0a3.42,3.42,0,0,1,.71.16c0-.07.35,0,.49,0h0c.22,0,.71.05,1.06.1v0c.3,0,.85.11,1.06.14.49.09,1.23.27,1.88.33l.41.16h.06l1.45,0c.33,0-.57-1.27-.53-1.29a2.15,2.15,0,0,1,.11.22,1.14,1.14,0,0,0-.16-.31h-.05c-.13-.22,0-.06-.12-.28,0,0,.14.17.24.34a1.35,1.35,0,0,0-.22-.38c-.07-.15,0,0,0-.19a2.62,2.62,0,0,1-.27-.43h0c-.17-.38-.36-.53-.5-.87l0,0c0-.13-.2-.35-.29-.57,0,.07,0,.13,0,0s-.22-.41-.29-.6l-.12-.15c-.46-.84-2.32-4.13-2.79-5l0,0Z" transform="translate(0 -0.8)"/><path class="cls-5" d="M809.29,195.39,806,196l-1.61.34a7.32,7.32,0,0,0-.8.11c.14,0,.1,0,0,0-.73.14,0,0-.78.19-.4.09-1.35.27-2.31.44l-3.4.6.14.24c.23.34.44.69.65,1l.32.52.12.2.09.13,0,0c.24.36,1.46,2.5,1.73,2.93l0-.06a2.69,2.69,0,0,1,.34.64c0-.07.25.24.33.36h0c.12.18.42.58.61.88h0c.19.24.46.73.58.91a18.12,18.12,0,0,0,1,1.65l.14.42,0,0,.88,1.15c.21.26.61-1.25.65-1.23s-.08.19-.1.22a1.06,1.06,0,0,0,.15-.32l0,0c.08-.25,0,0,.14-.28,0,0,0,.22-.11.41a1.39,1.39,0,0,0,.15-.41c.08-.16,0,0,.13-.16a1.93,1.93,0,0,1,.16-.48h0c.19-.37.18-.61.35-.94v0c.07-.12.14-.37.24-.59,0,.06-.08.11,0,0s.17-.43.27-.6l0-.19c.36-.89,1.69-4.43,2-5.33v0C808.28,198,808.77,196.75,809.29,195.39Z" transform="translate(0 -0.8)"/><path class="cls-5" d="M798.11,228,795,226.7c-.58-.23-1.12-.45-1.54-.6a8,8,0,0,0-.72-.35c.11.07.06.08,0,0-.68-.29-.05,0-.75-.27-.39-.14-1.28-.51-2.18-.89l-3.17-1.36c0,.13,0,.21,0,.28,0,.4,0,.81,0,1.22,0,.21,0,.41,0,.61a1.77,1.77,0,0,1,0,.23c0,.05,0,.11,0,.16v0c0,.43-.16,2.89-.16,3.4v-.07a2.92,2.92,0,0,1-.07.72c.06,0,.08.34.08.48h0c0,.21,0,.71,0,1.07l0,0c0,.3,0,.86,0,1.08a17.25,17.25,0,0,0-.11,1.9l-.11.42v.06l.12,1.45c0,.33,1.19-.71,1.22-.68l-.21.14a1.27,1.27,0,0,0,.3-.19v0c.2-.16.06,0,.26-.16,0,0-.15.16-.31.28.15-.1.31-.18.35-.26s0,.05.19-.06a2.64,2.64,0,0,1,.4-.31h0c.36-.21.48-.41.81-.6l0,0c.12-.06.32-.23.53-.35-.06,0-.13.05,0,0s.37-.27.55-.36l.14-.14c.78-.55,3.84-2.78,4.62-3.34l0,0Z" transform="translate(0 -0.8)"/><path class="cls-5" d="M809.23,238.76l-3.24.77-1.6.4c-.24,0-.55.1-.79.14.13,0,.09,0,0,.05a7.42,7.42,0,0,0-.77.22c-.4.1-1.34.32-2.3.53l-3.36.74a2.67,2.67,0,0,1,.14.24c.25.32.47.66.7,1l.33.51.13.2.1.12,0,0c.26.36,1.56,2.45,1.85,2.86l0-.06a3.91,3.91,0,0,1,.36.63c0-.07.26.23.34.35h0c.13.17.44.56.65.85h0c.19.23.49.71.61.89.26.42.62,1.08,1,1.61l.15.41.05,0,.93,1.11c.21.25.56-1.27.6-1.26l-.09.23A1.56,1.56,0,0,0,805,251l0,0c.07-.24,0,0,.13-.28,0,0,0,.22-.1.41a1.26,1.26,0,0,0,.14-.42c.07-.15,0,0,.12-.15a2.26,2.26,0,0,1,.14-.49h0c.17-.37.15-.61.31-.95v0c.07-.12.13-.37.23-.59,0,.06-.08.11,0,0s.15-.44.25-.62l0-.19c.32-.9,1.5-4.49,1.81-5.4v0C808.32,241.43,808.76,240.15,809.23,238.76Z" transform="translate(0 -0.8)"/><path class="cls-5" d="M825.88,202l-3.12,1.17-1.54.6a6.16,6.16,0,0,0-.77.24c.14,0,.1,0,0,0-.7.25,0,0-.74.31-.38.16-1.29.49-2.21.82l-3.24,1.16.17.21c.28.29.55.6.82.91l.39.47.15.17.11.11,0,0c.29.32,1.85,2.23,2.19,2.6l0-.05a2.86,2.86,0,0,1,.44.58c0-.07.29.19.38.3h0c.15.16.51.5.74.77h0c.22.21.57.65.71.81.31.38.76,1,1.22,1.47l.2.38.05,0,1.06,1c.25.22.4-1.33.44-1.33a2,2,0,0,1-.06.24,1.23,1.23,0,0,0,.09-.34l0,0c0-.26,0-.06.08-.3,0,0,0,.22,0,.42a1.52,1.52,0,0,0,.08-.43c0-.17,0,0,.1-.17a1.86,1.86,0,0,1,.08-.51h0c.12-.39.08-.63.19-1v.05c0-.13.08-.39.15-.62,0,.07-.06.12,0,0s.09-.46.16-.65v-.19c.21-.94.94-4.65,1.13-5.59v0C825.31,204.75,825.58,203.42,825.88,202Z" transform="translate(0 -0.8)"/><path class="cls-5" d="M829.57,184c-.06,1.1-.11,2.26-.16,3.33,0,.62,0,1.2-.06,1.65a6.82,6.82,0,0,0-.08.79c0-.13,0-.08,0,0,0,.75,0,.05,0,.81,0,.41,0,1.37-.11,2.35-.09,1.38-.18,2.78-.23,3.44l.27-.08c.38-.14.77-.26,1.16-.39l.58-.18.22-.07.15-.05,0,0c.41-.15,2.78-.82,3.26-1h-.07a3.42,3.42,0,0,1,.71-.17c-.06,0,.29-.19.43-.23h0l1-.38v0c.28-.12.82-.27,1-.34.48-.13,1.22-.3,1.83-.53l.44,0,.05,0,1.33-.58c.3-.14-1.07-.9-1-.93l.2.15a1.28,1.28,0,0,0-.28-.22l0,0c-.22-.13,0-.06-.24-.2,0,0,.21.09.37.2a1.46,1.46,0,0,0-.36-.24c-.13-.11,0,0-.12-.16a2.32,2.32,0,0,1-.43-.27h0c-.31-.27-.55-.32-.83-.57l0,0c-.1-.1-.33-.22-.51-.38.05,0,.08.1,0,0s-.37-.26-.52-.4l-.18-.08c-.78-.56-3.9-2.69-4.69-3.24h0Z" transform="translate(0 -0.8)"/><path class="cls-5" d="M831.77,214c.93.59,1.92,1.19,2.83,1.76l1.41.85c.18.15.46.31.66.45-.1-.08,0-.08,0,0,.63.4,0,0,.7.39.36.21,1.18.72,2,1.24l2.9,1.86c0-.12.05-.2.06-.27.06-.4.14-.8.23-1.2l.12-.6c0-.07,0-.15,0-.23l0-.15v0c.07-.43.63-2.83.71-3.32l0,.06a3,3,0,0,1,.19-.7c-.07,0,0-.35,0-.49h0c0-.22.08-.71.15-1.06l0,0c0-.3.16-.85.2-1.06.11-.48.32-1.21.42-1.86l.17-.39v-.07l.12-1.44c0-.33-1.29.5-1.31.47l.22-.1a1.32,1.32,0,0,0-.32.13v0c-.23.13-.07,0-.29.12,0,0,.17-.14.35-.23-.16.08-.34.13-.39.2s0-.05-.19,0a2.73,2.73,0,0,1-.45.24h0c-.39.15-.54.33-.89.46l0,0c-.13,0-.35.18-.58.26.07,0,.13,0,0,0s-.41.21-.61.27l-.15.11c-.87.42-4.24,2.11-5.11,2.54l0,0Z" transform="translate(0 -0.8)"/><path class="cls-6" d="M984.08,66.64a1.76,1.76,0,1,1-1.76-1.76A1.76,1.76,0,0,1,984.08,66.64Z" transform="translate(0 -0.8)"/><path class="cls-6" d="M1000,66.64a1.76,1.76,0,1,1-1.76-1.76A1.76,1.76,0,0,1,1000,66.64Z" transform="translate(0 -0.8)"/><path class="cls-6" d="M1015.82,66.64a1.76,1.76,0,1,1-1.76-1.76A1.76,1.76,0,0,1,1015.82,66.64Z" transform="translate(0 -0.8)"/><path class="cls-6" d="M1031.69,66.64a1.77,1.77,0,1,1-1.76-1.76A1.76,1.76,0,0,1,1031.69,66.64Z" transform="translate(0 -0.8)"/><path class="cls-6" d="M1047.56,66.64a1.77,1.77,0,1,1-1.76-1.76A1.76,1.76,0,0,1,1047.56,66.64Z" transform="translate(0 -0.8)"/><path class="cls-6" d="M1063.43,66.64a1.77,1.77,0,1,1-1.76-1.76A1.76,1.76,0,0,1,1063.43,66.64Z" transform="translate(0 -0.8)"/><path class="cls-6" d="M1079.3,66.64a1.77,1.77,0,1,1-1.76-1.76A1.76,1.76,0,0,1,1079.3,66.64Z" transform="translate(0 -0.8)"/><path class="cls-6" d="M1095.17,66.64a1.77,1.77,0,1,1-1.76-1.76A1.76,1.76,0,0,1,1095.17,66.64Z" transform="translate(0 -0.8)"/><path class="cls-6" d="M1111,66.64a1.77,1.77,0,1,1-1.76-1.76A1.76,1.76,0,0,1,1111,66.64Z" transform="translate(0 -0.8)"/><path class="cls-6" d="M1126.91,66.64a1.77,1.77,0,1,1-1.77-1.76A1.76,1.76,0,0,1,1126.91,66.64Z" transform="translate(0 -0.8)"/><path class="cls-6" d="M1142.78,66.64a1.77,1.77,0,1,1-1.77-1.76A1.76,1.76,0,0,1,1142.78,66.64Z" transform="translate(0 -0.8)"/><path class="cls-6" d="M984.08,80.75A1.76,1.76,0,1,1,982.32,79,1.76,1.76,0,0,1,984.08,80.75Z" transform="translate(0 -0.8)"/><path class="cls-6" d="M1000,80.75A1.76,1.76,0,1,1,998.19,79,1.76,1.76,0,0,1,1000,80.75Z" transform="translate(0 -0.8)"/><path class="cls-6" d="M1015.82,80.75a1.76,1.76,0,1,1-1.76-1.77A1.76,1.76,0,0,1,1015.82,80.75Z" transform="translate(0 -0.8)"/><path class="cls-6" d="M1031.69,80.75a1.77,1.77,0,1,1-1.76-1.77A1.76,1.76,0,0,1,1031.69,80.75Z" transform="translate(0 -0.8)"/><path class="cls-6" d="M1047.56,80.75A1.77,1.77,0,1,1,1045.8,79,1.76,1.76,0,0,1,1047.56,80.75Z" transform="translate(0 -0.8)"/><path class="cls-6" d="M1063.43,80.75a1.77,1.77,0,1,1-1.76-1.77A1.76,1.76,0,0,1,1063.43,80.75Z" transform="translate(0 -0.8)"/><path class="cls-6" d="M1079.3,80.75a1.77,1.77,0,1,1-1.76-1.77A1.76,1.76,0,0,1,1079.3,80.75Z" transform="translate(0 -0.8)"/><path class="cls-6" d="M1095.17,80.75a1.77,1.77,0,1,1-1.76-1.77A1.76,1.76,0,0,1,1095.17,80.75Z" transform="translate(0 -0.8)"/><path class="cls-6" d="M1111,80.75a1.77,1.77,0,1,1-1.76-1.77A1.76,1.76,0,0,1,1111,80.75Z" transform="translate(0 -0.8)"/><path class="cls-6" d="M1126.91,80.75a1.77,1.77,0,1,1-1.77-1.77A1.76,1.76,0,0,1,1126.91,80.75Z" transform="translate(0 -0.8)"/><path class="cls-6" d="M1142.78,80.75A1.77,1.77,0,1,1,1141,79,1.76,1.76,0,0,1,1142.78,80.75Z" transform="translate(0 -0.8)"/><path class="cls-6" d="M984.08,94.85a1.76,1.76,0,1,1-1.76-1.76A1.75,1.75,0,0,1,984.08,94.85Z" transform="translate(0 -0.8)"/><path class="cls-6" d="M1000,94.85a1.76,1.76,0,1,1-1.76-1.76A1.76,1.76,0,0,1,1000,94.85Z" transform="translate(0 -0.8)"/><path class="cls-6" d="M1015.82,94.85a1.76,1.76,0,1,1-1.76-1.76A1.76,1.76,0,0,1,1015.82,94.85Z" transform="translate(0 -0.8)"/><path class="cls-6" d="M1031.69,94.85a1.77,1.77,0,1,1-1.76-1.76A1.76,1.76,0,0,1,1031.69,94.85Z" transform="translate(0 -0.8)"/><path class="cls-6" d="M1047.56,94.85a1.77,1.77,0,1,1-1.76-1.76A1.76,1.76,0,0,1,1047.56,94.85Z" transform="translate(0 -0.8)"/><path class="cls-6" d="M1063.43,94.85a1.77,1.77,0,1,1-1.76-1.76A1.76,1.76,0,0,1,1063.43,94.85Z" transform="translate(0 -0.8)"/><path class="cls-6" d="M1079.3,94.85a1.77,1.77,0,1,1-1.76-1.76A1.76,1.76,0,0,1,1079.3,94.85Z" transform="translate(0 -0.8)"/><path class="cls-6" d="M1095.17,94.85a1.77,1.77,0,1,1-1.76-1.76A1.76,1.76,0,0,1,1095.17,94.85Z" transform="translate(0 -0.8)"/><path class="cls-6" d="M1111,94.85a1.77,1.77,0,1,1-1.76-1.76A1.76,1.76,0,0,1,1111,94.85Z" transform="translate(0 -0.8)"/><path class="cls-6" d="M1126.91,94.85a1.77,1.77,0,1,1-1.77-1.76A1.76,1.76,0,0,1,1126.91,94.85Z" transform="translate(0 -0.8)"/><path class="cls-6" d="M1142.78,94.85a1.77,1.77,0,1,1-1.77-1.76A1.76,1.76,0,0,1,1142.78,94.85Z" transform="translate(0 -0.8)"/><path class="cls-6" d="M984.08,109a1.76,1.76,0,1,1-1.76-1.77A1.76,1.76,0,0,1,984.08,109Z" transform="translate(0 -0.8)"/><path class="cls-6" d="M1000,109a1.76,1.76,0,1,1-1.76-1.77A1.76,1.76,0,0,1,1000,109Z" transform="translate(0 -0.8)"/><path class="cls-6" d="M1015.82,109a1.76,1.76,0,1,1-1.76-1.77A1.76,1.76,0,0,1,1015.82,109Z" transform="translate(0 -0.8)"/><path class="cls-6" d="M1031.69,109a1.77,1.77,0,1,1-1.76-1.77A1.76,1.76,0,0,1,1031.69,109Z" transform="translate(0 -0.8)"/><path class="cls-6" d="M1047.56,109a1.77,1.77,0,1,1-1.76-1.77A1.76,1.76,0,0,1,1047.56,109Z" transform="translate(0 -0.8)"/><path class="cls-6" d="M1063.43,109a1.77,1.77,0,1,1-1.76-1.77A1.76,1.76,0,0,1,1063.43,109Z" transform="translate(0 -0.8)"/><path class="cls-6" d="M1079.3,109a1.77,1.77,0,1,1-1.76-1.77A1.76,1.76,0,0,1,1079.3,109Z" transform="translate(0 -0.8)"/><path class="cls-6" d="M1095.17,109a1.77,1.77,0,1,1-1.76-1.77A1.76,1.76,0,0,1,1095.17,109Z" transform="translate(0 -0.8)"/><path class="cls-6" d="M1111,109a1.77,1.77,0,1,1-1.76-1.77A1.76,1.76,0,0,1,1111,109Z" transform="translate(0 -0.8)"/><path class="cls-6" d="M1126.91,109a1.77,1.77,0,1,1-1.77-1.77A1.76,1.76,0,0,1,1126.91,109Z" transform="translate(0 -0.8)"/><path class="cls-6" d="M1142.78,109a1.77,1.77,0,1,1-1.77-1.77A1.76,1.76,0,0,1,1142.78,109Z" transform="translate(0 -0.8)"/><path class="cls-6" d="M984.08,123.06a1.76,1.76,0,1,1-1.76-1.76A1.76,1.76,0,0,1,984.08,123.06Z" transform="translate(0 -0.8)"/><path class="cls-6" d="M1000,123.06a1.76,1.76,0,1,1-1.76-1.76A1.76,1.76,0,0,1,1000,123.06Z" transform="translate(0 -0.8)"/><path class="cls-6" d="M1015.82,123.06a1.76,1.76,0,1,1-1.76-1.76A1.76,1.76,0,0,1,1015.82,123.06Z" transform="translate(0 -0.8)"/><path class="cls-6" d="M1031.69,123.06a1.77,1.77,0,1,1-1.76-1.76A1.76,1.76,0,0,1,1031.69,123.06Z" transform="translate(0 -0.8)"/><path class="cls-6" d="M1047.56,123.06a1.77,1.77,0,1,1-1.76-1.76A1.76,1.76,0,0,1,1047.56,123.06Z" transform="translate(0 -0.8)"/><path class="cls-6" d="M1063.43,123.06a1.77,1.77,0,1,1-1.76-1.76A1.76,1.76,0,0,1,1063.43,123.06Z" transform="translate(0 -0.8)"/><path class="cls-6" d="M1079.3,123.06a1.77,1.77,0,1,1-1.76-1.76A1.76,1.76,0,0,1,1079.3,123.06Z" transform="translate(0 -0.8)"/><path class="cls-6" d="M1095.17,123.06a1.77,1.77,0,1,1-1.76-1.76A1.76,1.76,0,0,1,1095.17,123.06Z" transform="translate(0 -0.8)"/><path class="cls-6" d="M1111,123.06a1.77,1.77,0,1,1-1.76-1.76A1.76,1.76,0,0,1,1111,123.06Z" transform="translate(0 -0.8)"/><path class="cls-6" d="M1126.91,123.06a1.77,1.77,0,1,1-1.77-1.76A1.77,1.77,0,0,1,1126.91,123.06Z" transform="translate(0 -0.8)"/><path class="cls-6" d="M1142.78,123.06a1.77,1.77,0,1,1-1.77-1.76A1.77,1.77,0,0,1,1142.78,123.06Z" transform="translate(0 -0.8)"/><path class="cls-6" d="M984.08,137.17a1.76,1.76,0,1,1-1.76-1.77A1.76,1.76,0,0,1,984.08,137.17Z" transform="translate(0 -0.8)"/><path class="cls-6" d="M1000,137.17a1.76,1.76,0,1,1-1.76-1.77A1.76,1.76,0,0,1,1000,137.17Z" transform="translate(0 -0.8)"/><path class="cls-6" d="M1015.82,137.17a1.76,1.76,0,1,1-1.76-1.77A1.76,1.76,0,0,1,1015.82,137.17Z" transform="translate(0 -0.8)"/><path class="cls-6" d="M1031.69,137.17a1.77,1.77,0,1,1-1.76-1.77A1.76,1.76,0,0,1,1031.69,137.17Z" transform="translate(0 -0.8)"/><path class="cls-6" d="M1047.56,137.17a1.77,1.77,0,1,1-1.76-1.77A1.76,1.76,0,0,1,1047.56,137.17Z" transform="translate(0 -0.8)"/><path class="cls-6" d="M1063.43,137.17a1.77,1.77,0,1,1-1.76-1.77A1.76,1.76,0,0,1,1063.43,137.17Z" transform="translate(0 -0.8)"/><path class="cls-6" d="M1079.3,137.17a1.77,1.77,0,1,1-1.76-1.77A1.76,1.76,0,0,1,1079.3,137.17Z" transform="translate(0 -0.8)"/><circle class="cls-6" cx="1093.41" cy="136.37" r="1.76"/><path class="cls-6" d="M1111,137.17a1.77,1.77,0,1,1-1.76-1.77A1.76,1.76,0,0,1,1111,137.17Z" transform="translate(0 -0.8)"/><path class="cls-6" d="M1126.91,137.17a1.77,1.77,0,1,1-1.77-1.77A1.76,1.76,0,0,1,1126.91,137.17Z" transform="translate(0 -0.8)"/><path class="cls-6" d="M1142.78,137.17a1.77,1.77,0,1,1-1.77-1.77A1.76,1.76,0,0,1,1142.78,137.17Z" transform="translate(0 -0.8)"/><path class="cls-6" d="M984.08,151.27a1.76,1.76,0,1,1-1.76-1.76A1.76,1.76,0,0,1,984.08,151.27Z" transform="translate(0 -0.8)"/><path class="cls-6" d="M1000,151.27a1.76,1.76,0,1,1-1.76-1.76A1.76,1.76,0,0,1,1000,151.27Z" transform="translate(0 -0.8)"/><path class="cls-6" d="M1015.82,151.27a1.76,1.76,0,1,1-1.76-1.76A1.76,1.76,0,0,1,1015.82,151.27Z" transform="translate(0 -0.8)"/><path class="cls-6" d="M1031.69,151.27a1.77,1.77,0,1,1-1.76-1.76A1.76,1.76,0,0,1,1031.69,151.27Z" transform="translate(0 -0.8)"/><path class="cls-6" d="M1047.56,151.27a1.77,1.77,0,1,1-1.76-1.76A1.76,1.76,0,0,1,1047.56,151.27Z" transform="translate(0 -0.8)"/><path class="cls-6" d="M1063.43,151.27a1.77,1.77,0,1,1-1.76-1.76A1.76,1.76,0,0,1,1063.43,151.27Z" transform="translate(0 -0.8)"/><path class="cls-6" d="M1079.3,151.27a1.77,1.77,0,1,1-1.76-1.76A1.76,1.76,0,0,1,1079.3,151.27Z" transform="translate(0 -0.8)"/><path class="cls-6" d="M1095.17,151.27a1.77,1.77,0,1,1-1.76-1.76A1.76,1.76,0,0,1,1095.17,151.27Z" transform="translate(0 -0.8)"/><path class="cls-6" d="M1111,151.27a1.77,1.77,0,1,1-1.76-1.76A1.76,1.76,0,0,1,1111,151.27Z" transform="translate(0 -0.8)"/><path class="cls-6" d="M1126.91,151.27a1.77,1.77,0,1,1-1.77-1.76A1.77,1.77,0,0,1,1126.91,151.27Z" transform="translate(0 -0.8)"/><path class="cls-6" d="M1142.78,151.27a1.77,1.77,0,1,1-1.77-1.76A1.77,1.77,0,0,1,1142.78,151.27Z" transform="translate(0 -0.8)"/><path class="cls-6" d="M984.08,165.38a1.76,1.76,0,1,1-1.76-1.76A1.76,1.76,0,0,1,984.08,165.38Z" transform="translate(0 -0.8)"/><path class="cls-6" d="M1000,165.38a1.76,1.76,0,1,1-1.76-1.76A1.76,1.76,0,0,1,1000,165.38Z" transform="translate(0 -0.8)"/><path class="cls-6" d="M1015.82,165.38a1.76,1.76,0,1,1-1.76-1.76A1.76,1.76,0,0,1,1015.82,165.38Z" transform="translate(0 -0.8)"/><path class="cls-6" d="M1031.69,165.38a1.77,1.77,0,1,1-1.76-1.76A1.76,1.76,0,0,1,1031.69,165.38Z" transform="translate(0 -0.8)"/><path class="cls-6" d="M1047.56,165.38a1.77,1.77,0,1,1-1.76-1.76A1.76,1.76,0,0,1,1047.56,165.38Z" transform="translate(0 -0.8)"/><path class="cls-6" d="M1063.43,165.38a1.77,1.77,0,1,1-1.76-1.76A1.76,1.76,0,0,1,1063.43,165.38Z" transform="translate(0 -0.8)"/><path class="cls-6" d="M1079.3,165.38a1.77,1.77,0,1,1-1.76-1.76A1.76,1.76,0,0,1,1079.3,165.38Z" transform="translate(0 -0.8)"/><path class="cls-6" d="M1095.17,165.38a1.77,1.77,0,1,1-1.76-1.76A1.76,1.76,0,0,1,1095.17,165.38Z" transform="translate(0 -0.8)"/><path class="cls-6" d="M1111,165.38a1.77,1.77,0,1,1-1.76-1.76A1.76,1.76,0,0,1,1111,165.38Z" transform="translate(0 -0.8)"/><path class="cls-6" d="M1126.91,165.38a1.77,1.77,0,1,1-1.77-1.76A1.76,1.76,0,0,1,1126.91,165.38Z" transform="translate(0 -0.8)"/><path class="cls-6" d="M1142.78,165.38a1.77,1.77,0,1,1-1.77-1.76A1.76,1.76,0,0,1,1142.78,165.38Z" transform="translate(0 -0.8)"/><path class="cls-6" d="M984.08,179.49a1.76,1.76,0,1,1-1.76-1.77A1.76,1.76,0,0,1,984.08,179.49Z" transform="translate(0 -0.8)"/><path class="cls-6" d="M1000,179.49a1.76,1.76,0,1,1-1.76-1.77A1.76,1.76,0,0,1,1000,179.49Z" transform="translate(0 -0.8)"/><path class="cls-6" d="M1015.82,179.49a1.76,1.76,0,1,1-1.76-1.77A1.76,1.76,0,0,1,1015.82,179.49Z" transform="translate(0 -0.8)"/><path class="cls-6" d="M1031.69,179.49a1.77,1.77,0,1,1-1.76-1.77A1.76,1.76,0,0,1,1031.69,179.49Z" transform="translate(0 -0.8)"/><path class="cls-6" d="M1047.56,179.49a1.77,1.77,0,1,1-1.76-1.77A1.76,1.76,0,0,1,1047.56,179.49Z" transform="translate(0 -0.8)"/><path class="cls-6" d="M1063.43,179.49a1.77,1.77,0,1,1-1.76-1.77A1.76,1.76,0,0,1,1063.43,179.49Z" transform="translate(0 -0.8)"/><path class="cls-6" d="M1079.3,179.49a1.77,1.77,0,1,1-1.76-1.77A1.76,1.76,0,0,1,1079.3,179.49Z" transform="translate(0 -0.8)"/><path class="cls-6" d="M1095.17,179.49a1.77,1.77,0,1,1-1.76-1.77A1.76,1.76,0,0,1,1095.17,179.49Z" transform="translate(0 -0.8)"/><path class="cls-6" d="M1111,179.49a1.77,1.77,0,1,1-1.76-1.77A1.76,1.76,0,0,1,1111,179.49Z" transform="translate(0 -0.8)"/><path class="cls-6" d="M1126.91,179.49a1.77,1.77,0,1,1-1.77-1.77A1.76,1.76,0,0,1,1126.91,179.49Z" transform="translate(0 -0.8)"/><path class="cls-6" d="M1142.78,179.49a1.77,1.77,0,1,1-1.77-1.77A1.76,1.76,0,0,1,1142.78,179.49Z" transform="translate(0 -0.8)"/><path class="cls-6" d="M984.08,193.59a1.76,1.76,0,1,1-1.76-1.76A1.76,1.76,0,0,1,984.08,193.59Z" transform="translate(0 -0.8)"/><path class="cls-6" d="M1000,193.59a1.76,1.76,0,1,1-1.76-1.76A1.76,1.76,0,0,1,1000,193.59Z" transform="translate(0 -0.8)"/><path class="cls-6" d="M1015.82,193.59a1.76,1.76,0,1,1-1.76-1.76A1.76,1.76,0,0,1,1015.82,193.59Z" transform="translate(0 -0.8)"/><path class="cls-6" d="M1031.69,193.59a1.77,1.77,0,1,1-1.76-1.76A1.76,1.76,0,0,1,1031.69,193.59Z" transform="translate(0 -0.8)"/><path class="cls-6" d="M1047.56,193.59a1.77,1.77,0,1,1-1.76-1.76A1.76,1.76,0,0,1,1047.56,193.59Z" transform="translate(0 -0.8)"/><path class="cls-6" d="M1063.43,193.59a1.77,1.77,0,1,1-1.76-1.76A1.76,1.76,0,0,1,1063.43,193.59Z" transform="translate(0 -0.8)"/><path class="cls-6" d="M1079.3,193.59a1.77,1.77,0,1,1-1.76-1.76A1.76,1.76,0,0,1,1079.3,193.59Z" transform="translate(0 -0.8)"/><path class="cls-6" d="M1095.17,193.59a1.77,1.77,0,1,1-1.76-1.76A1.76,1.76,0,0,1,1095.17,193.59Z" transform="translate(0 -0.8)"/><path class="cls-6" d="M1111,193.59a1.77,1.77,0,1,1-1.76-1.76A1.76,1.76,0,0,1,1111,193.59Z" transform="translate(0 -0.8)"/><path class="cls-6" d="M1126.91,193.59a1.77,1.77,0,1,1-1.77-1.76A1.77,1.77,0,0,1,1126.91,193.59Z" transform="translate(0 -0.8)"/><path class="cls-6" d="M1142.78,193.59a1.77,1.77,0,1,1-1.77-1.76A1.77,1.77,0,0,1,1142.78,193.59Z" transform="translate(0 -0.8)"/><path class="cls-6" d="M984.08,207.7a1.76,1.76,0,1,1-1.76-1.76A1.76,1.76,0,0,1,984.08,207.7Z" transform="translate(0 -0.8)"/><path class="cls-6" d="M1000,207.7a1.76,1.76,0,1,1-1.76-1.76A1.76,1.76,0,0,1,1000,207.7Z" transform="translate(0 -0.8)"/><path class="cls-6" d="M1015.82,207.7a1.76,1.76,0,1,1-1.76-1.76A1.76,1.76,0,0,1,1015.82,207.7Z" transform="translate(0 -0.8)"/><path class="cls-6" d="M1031.69,207.7a1.77,1.77,0,1,1-1.76-1.76A1.76,1.76,0,0,1,1031.69,207.7Z" transform="translate(0 -0.8)"/><path class="cls-6" d="M1047.56,207.7a1.77,1.77,0,1,1-1.76-1.76A1.76,1.76,0,0,1,1047.56,207.7Z" transform="translate(0 -0.8)"/><path class="cls-6" d="M1063.43,207.7a1.77,1.77,0,1,1-1.76-1.76A1.76,1.76,0,0,1,1063.43,207.7Z" transform="translate(0 -0.8)"/><path class="cls-6" d="M1079.3,207.7a1.77,1.77,0,1,1-1.76-1.76A1.76,1.76,0,0,1,1079.3,207.7Z" transform="translate(0 -0.8)"/><path class="cls-6" d="M1095.17,207.7a1.77,1.77,0,1,1-1.76-1.76A1.76,1.76,0,0,1,1095.17,207.7Z" transform="translate(0 -0.8)"/><path class="cls-6" d="M1111,207.7a1.77,1.77,0,1,1-1.76-1.76A1.76,1.76,0,0,1,1111,207.7Z" transform="translate(0 -0.8)"/><path class="cls-6" d="M1126.91,207.7a1.77,1.77,0,1,1-1.77-1.76A1.76,1.76,0,0,1,1126.91,207.7Z" transform="translate(0 -0.8)"/><path class="cls-6" d="M1142.78,207.7a1.77,1.77,0,1,1-1.77-1.76A1.76,1.76,0,0,1,1142.78,207.7Z" transform="translate(0 -0.8)"/><path class="cls-6" d="M984.08,221.8a1.76,1.76,0,1,1-1.76-1.76A1.76,1.76,0,0,1,984.08,221.8Z" transform="translate(0 -0.8)"/><path class="cls-6" d="M1000,221.8a1.76,1.76,0,1,1-1.76-1.76A1.76,1.76,0,0,1,1000,221.8Z" transform="translate(0 -0.8)"/><path class="cls-6" d="M1015.82,221.8a1.76,1.76,0,1,1-1.76-1.76A1.76,1.76,0,0,1,1015.82,221.8Z" transform="translate(0 -0.8)"/><path class="cls-6" d="M1031.69,221.8a1.77,1.77,0,1,1-1.76-1.76A1.76,1.76,0,0,1,1031.69,221.8Z" transform="translate(0 -0.8)"/><path class="cls-6" d="M1047.56,221.8a1.77,1.77,0,1,1-1.76-1.76A1.76,1.76,0,0,1,1047.56,221.8Z" transform="translate(0 -0.8)"/><path class="cls-6" d="M1063.43,221.8a1.77,1.77,0,1,1-1.76-1.76A1.76,1.76,0,0,1,1063.43,221.8Z" transform="translate(0 -0.8)"/><path class="cls-6" d="M1079.3,221.8a1.77,1.77,0,1,1-1.76-1.76A1.76,1.76,0,0,1,1079.3,221.8Z" transform="translate(0 -0.8)"/><path class="cls-6" d="M1095.17,221.8a1.77,1.77,0,1,1-1.76-1.76A1.76,1.76,0,0,1,1095.17,221.8Z" transform="translate(0 -0.8)"/><path class="cls-6" d="M1111,221.8a1.77,1.77,0,1,1-1.76-1.76A1.76,1.76,0,0,1,1111,221.8Z" transform="translate(0 -0.8)"/><path class="cls-6" d="M1126.91,221.8a1.77,1.77,0,1,1-1.77-1.76A1.77,1.77,0,0,1,1126.91,221.8Z" transform="translate(0 -0.8)"/><path class="cls-6" d="M1142.78,221.8A1.77,1.77,0,1,1,1141,220,1.77,1.77,0,0,1,1142.78,221.8Z" transform="translate(0 -0.8)"/><path class="cls-6" d="M1128.4,411.57c-8.38-40.57-36.63-74.78-72.33-94.87-42.34-23.82-92.47-16.75-135.53-37.37-36.74-17.6-67.7-46.39-106.95-58.85-58-18.41-125,5.67-163.88,52.5S598.82,385.61,611,445.23c6.3,30.79,19.25,65.56,42,88.23s66.57,33.61,97.27,41.53c63.78,16.45,130.92,14.58,195.2,2,80.74-15.79,197-49.76,184.66-154.71Q1129.49,416.86,1128.4,411.57Z" transform="translate(0 -0.8)"/><rect class="cls-4" x="701.26" y="254.52" width="156.33" height="96.2"/><polygon class="cls-6" points="858 295.2 782.24 295.2 782.24 253.71 773.54 253.71 773.54 295.2 700.67 295.2 700.67 303.04 773.54 303.04 773.54 352.13 782.24 352.13 782.24 303.04 858 303.04 858 295.2"/><rect class="cls-3" x="896.98" y="395.56" width="223.98" height="105.08"/><rect class="cls-4" x="903.45" y="454.46" width="209.96" height="38.28"/><rect class="cls-4" x="903.45" y="402.16" width="209.96" height="45.29"/><rect class="cls-3" x="1077.56" y="403.85" width="8.53" height="7.88"/><rect class="cls-3" x="1077.56" y="412.55" width="8.53" height="33.55"/><rect class="cls-3" x="1089.08" y="403.85" width="8.53" height="7.88"/><rect class="cls-3" x="1089.08" y="412.55" width="8.53" height="33.55"/><rect class="cls-3" x="1100.31" y="403.66" width="8.54" height="8.07"/><rect class="cls-3" x="1100.31" y="412.55" width="8.54" height="33.36"/><path class="cls-7" d="M1097.42,349.05l-6.56-6.33,3.14,7.56c-4,1.29-7.93,2.17-10.8,2.85-.71.16-1.41.34-2.09.53l-8.6-6.06,2.58,7.89a92.61,92.61,0,0,0-34.38,21.38l-.89-6.74c3.41-15.88,11.43-31.22,25.63-39.88a46.83,46.83,0,0,1,24-6.9c7.45-.05,18.76,1.54,20.27,10.58C1111,341.61,1104.66,346.16,1097.42,349.05Z" transform="translate(0 -0.8)"/><path class="cls-7" d="M1037.32,370l-9.89,4.76c-3.51-13.41-18.76-23.12-33.85-31.44l4.19-14.74L987.51,340c-3.41-1.84-6.73-3.62-9.81-5.37l.74-5.57-4.36,3.44c-9-5.45-15-10.71-13.59-16.66,4.39-17.93,31.46-16.77,50.12-2.93C1033.29,329.76,1037.32,370,1037.32,370Z" transform="translate(0 -0.8)"/><path class="cls-7" d="M1063.06,283.83l-13.85-.43,9,7.16c-.66,1-1.26,1.85-1.77,2.69a75.53,75.53,0,0,0-5.44,10.53l-7.9-.24,6.29,4.35c-7.72,21.39-6.85,45.8-4.77,68.24l-3,4.56c1-1.49-4.12-13.08-4.62-14.8-6.12-20.67-13.15-41.75-13.21-63.55-.06-20.23,8-45.63,27.11-55.9,6.1-3.28,14.25-3.9,19.7,1C1081.14,257,1071.32,272.29,1063.06,283.83Z" transform="translate(0 -0.8)"/><path class="cls-8" d="M1044.8,369.25s14.36-30.19,41-33.41" transform="translate(0 -0.8)"/><path class="cls-8" d="M1031.1,370s-7.69-51.21-48.66-55.24" transform="translate(0 -0.8)"/><path class="cls-8" d="M1051.1,259.84s-32.3,23.18-10.64,114" transform="translate(0 -0.8)"/><path class="cls-4" d="M1064.29,270.46a2.63,2.63,0,1,1-2.62-2.62A2.62,2.62,0,0,1,1064.29,270.46Z" transform="translate(0 -0.8)"/><path class="cls-4" d="M1062.25,261.72a1.46,1.46,0,1,1-1.46-1.46A1.45,1.45,0,0,1,1062.25,261.72Z" transform="translate(0 -0.8)"/><path class="cls-4" d="M1095.42,327.83a1,1,0,1,1-1-1A1,1,0,0,1,1095.42,327.83Z" transform="translate(0 -0.8)"/><path class="cls-4" d="M1097.47,333.24a1.8,1.8,0,1,1-1.8-1.81A1.8,1.8,0,0,1,1097.47,333.24Z" transform="translate(0 -0.8)"/><path class="cls-9" d="M1022.31,396.19l-4.31-26.6a212.37,212.37,0,0,1,34.2,0L1047.14,397Z" transform="translate(0 -0.8)"/><circle class="cls-9" cx="923.89" cy="312.32" r="2.88"/><polyline class="cls-10" points="905.56 333.01 924.15 310.49 945.36 333.01"/><rect class="cls-3" x="898.06" y="329.07" width="53.88" height="37.68"/><rect class="cls-4" x="902.99" y="334" width="44.02" height="26.76"/><polygon class="cls-3" points="663.06 587.04 723.36 534.28 1143.59 529.57 1118.15 591.75 663.06 587.04"/><ellipse class="cls-11" cx="931.32" cy="557.69" rx="183.4" ry="25.1"/><path class="cls-9" d="M681.73,595.7l29.93-29.18a4,4,0,0,0-2.44-6.79l-77.93-6.43Z" transform="translate(0 -0.8)"/><path class="cls-12" d="M686,587.41,674.8,533.69a7.47,7.47,0,0,0-6.94-6l-71.2-3.64a7.48,7.48,0,0,0-7.64,9.27l12.49,50.44a7.47,7.47,0,0,0,6.52,5.65l69.89,6.92A7.48,7.48,0,0,0,686,587.41Z" transform="translate(0 -0.8)"/><ellipse class="cls-9" cx="634.8" cy="557.89" rx="9.37" ry="11.83" transform="translate(-147.48 237.33) rotate(-19.08)"/><path class="cls-10" d="M605.21,524.54l-8.55-.44a7.48,7.48,0,0,0-7.64,9.27l2.27,9.16" transform="translate(0 -0.8)"/><line class="cls-10" x1="612.82" y1="524.13" x2="608.8" y2="523.92"/><path class="cls-13" d="M792.53,550.24s12.16-39.14,9.5-64.6a225.92,225.92,0,0,0-10.64-47.5L784.55,421s-6.06,28.42-2.64,53.88,1.88,62-.4,69.62Z" transform="translate(0 -0.8)"/><path class="cls-13" d="M781.51,544.54s-25.77,3.07-24.88,7.75,19.39,2,19.39,2-1.11,3.56,2.45,3.34,11.86-1,14.06-7.4S781.51,544.54,781.51,544.54Z" transform="translate(0 -0.8)"/><path class="cls-9" d="M897.21,429.11,886.66,467c-10.57,5.5-22.33,11.06-31.38,12.89-16.6,3.38-28.62,2.18-28.62,2.18s-14.35-2.47-24.18-13.13-17.85-43.16-17.85-43.16-3.08-5.24,12.1-21.22c9.35-9.88,45.39,1.79,71.63,12.17C884.68,423.14,897.21,429.11,897.21,429.11Z" transform="translate(0 -0.8)"/><path class="cls-14" d="M897.23,429.06,886.66,467c-10.57,5.5-22.31,10.95-31.35,12.78,7.38-8.92,18.82-28.94,13.08-63.16C884.71,423.09,897.23,429.06,897.23,429.06Z" transform="translate(0 -0.8)"/><path class="cls-14" d="M821.81,563l-.94,2a.3.3,0,0,1,0,.08L820,567l-.46.56c-.31.36-.78.88-1.4,1.49a24.54,24.54,0,0,1-13.73,6.84c-10,1.34-17.52,2.23-20.42-2.23-2.46-3.79,20-12.09,26.77-14.48l1.89-.67Z" transform="translate(0 -0.8)"/><path class="cls-14" d="M831.18,517.7c3.76,17.56-5.66,38.48-10.31,47.35a.3.3,0,0,1,0,.08c-.5.94-.94,1.75-1.3,2.4-.31.36-.78.88-1.4,1.49l-7.45-7.85c.05-.54.07-1.22.07-2-.06-11.31-5.65-46.84-9.1-64.83-2.23-11.65-4-33.47-5.07-48.92A27.49,27.49,0,0,1,816.43,417c9.54-2.71,20.51,2.68,24,16.4C847.8,462.54,826.26,494.73,831.18,517.7Z" transform="translate(0 -0.8)"/><path class="cls-15" d="M796.29,576.7a13.19,13.19,0,0,1,10.88-6.86" transform="translate(0 -0.8)"/><path class="cls-15" d="M786.58,575.74a18.73,18.73,0,0,1,13.63-8" transform="translate(0 -0.8)"/><path class="cls-15" d="M810.75,559.15s4.92,0,7.55,3.22" transform="translate(0 -0.8)"/><path class="cls-14" d="M1103.09,521l1.23,19.77s-17.3,2.63-16.55,6.39,30.84,7.9,34.6-.38,7.89-29.71,2.25-35.35-13.74-5.2-13.74-5.2Z" transform="translate(0 -0.8)"/><path class="cls-15" d="M1103.81,540.48s3.64,0,8.75,4.95" transform="translate(0 -0.8)"/><path class="cls-15" d="M1089,548.07a7.6,7.6,0,0,1,5.45-1.32" transform="translate(0 -0.8)"/><path class="cls-16" d="M1110.88,506.21,1103.09,521s-10.52-3.22-26.16-7.76l-7.86-2.26-.22-.06-7.47-2.13-3.11-.86c-3.43-1-7-2-10.59-3-35.83-9.85-79-20.66-96.75-20.88V447.16s31.58-9,52.09,4.92,23.38,17.22,23.38,17.22a83.56,83.56,0,0,1,12.4,1.13c2.81.44,6,1.05,9.44,1.9,1,.24,2,.49,3,.77,1.94.53,4,1.14,6,1.82,1.1.37,2.2.75,3.33,1.16,2.21.82,4.48,1.74,6.78,2.76a99.82,99.82,0,0,1,29.14,19.58A29.1,29.1,0,0,0,1110.88,506.21Z" transform="translate(0 -0.8)"/><line class="cls-10" x1="1027.83" y1="476.99" x2="1026.4" y2="468.5"/><path class="cls-9" d="M1069.07,511l-.22-.06-7.47-2.13-10.12-35.67c1.94.53,4,1.14,6,1.82,1.1.37,2.2.75,3.33,1.16Z" transform="translate(0 -0.8)"/><path class="cls-9" d="M1058.27,507.91c-3.43-1-7-2-10.59-3l-8.88-34.52c2.81.44,6,1.05,9.44,1.9Z" transform="translate(0 -0.8)"/><path class="cls-7" d="M1031.76,519.88c-5.24,6-32.9.44-44.28-2.14a10.63,10.63,0,0,0-5.2.1,10.53,10.53,0,0,0-3.59,1.68c-7.33,5.29-24.23,16.39-44.24,22.14a97.72,97.72,0,0,1-12.84,2.8,73.64,73.64,0,0,1-8.93.74,71.57,71.57,0,0,1-8.82-.34c-2.14-.22-4.24-.52-6.3-.92a67,67,0,0,1-9.24-2.46l-.7-.24c-17.2-6.17-29.48-18.91-29.83-34.13-.45-19.85,31.2-36.87,31.2-36.87L886.62,467l10.59-37.86c22.22-13,53.78-15.75,69.6,8.38,7.19,11,6.47,24.15,1,35.7a65.85,65.85,0,0,1-11.07,16.14c-2.36,2.58-9.89,11.64-13.4,11.64h1.13c.85,0,1.76.08,2.71.15l.2,0c1,.08,2.07.18,3.16.31,4,.45,8.29,1.16,12.27,1.89,2,.37,3.94.74,5.67,1.1a16.1,16.1,0,0,0,9.12-.78,15,15,0,0,0,3.2-1.73c9.93-7,20.82.94,24.93,4.23C1010.48,510,1038.37,512.31,1031.76,519.88Z" transform="translate(0 -0.8)"/><path class="cls-10" d="M882.21,510.1s26.37-13.75,61.15-9.13" transform="translate(0 -0.8)"/><line class="cls-10" x1="888.99" y1="469.44" x2="909.23" y2="460.66"/><path class="cls-14" d="M1031.76,519.88c-5.24,6-32.9.44-44.28-2.14a10.63,10.63,0,0,0-5.2.1,34.56,34.56,0,0,0-4.66-14.17,15,15,0,0,0,3.2-1.73c9.93-7,20.82.94,24.93,4.23C1010.48,510,1038.37,512.31,1031.76,519.88Z" transform="translate(0 -0.8)"/><path class="cls-15" d="M1024.83,519.11a8.48,8.48,0,0,0,6.93.77" transform="translate(0 -0.8)"/><path class="cls-9" d="M962.83,503.35l-28.38,38.31a97.72,97.72,0,0,1-12.84,2.8,73.64,73.64,0,0,1-8.93.74l37.88-43.74C954.51,501.91,958.85,502.62,962.83,503.35Z" transform="translate(0 -0.8)"/><path class="cls-9" d="M947.4,501.15l-43.54,43.71c-2.14-.22-4.24-.52-6.3-.92a67,67,0,0,1-9.24-2.46L944.48,501h0c.85,0,1.76.08,2.71.15Z" transform="translate(0 -0.8)"/><path class="cls-9" d="M770.17,454.54c-4.11,5.73-8.8,8.55-14.46,9.45L754,448l-2.23,16.35a59.36,59.36,0,0,1-13.17-1.66l-1.84-7.92s-1.25,4.16-2,7c-1.23-.31-2.49-.63-3.79-1a106.86,106.86,0,0,0-13-2.68,137.79,137.79,0,0,1-4.26-15.72c-2.66,6.85-2.68,12-2.22,15.06a35.82,35.82,0,0,0-8.22.26,41.31,41.31,0,0,1,4.11-33.82c3.42-5.56,8.23-10.39,10.28-16.58,2.24-6.79.84-14.14,0-21.24s-1.76-13,.16-20.8l60.38,35.56C782.23,420.56,779.12,442,770.17,454.54Z" transform="translate(0 -0.8)"/><path class="cls-14" d="M799.13,405.59c-.34,8.34-4.47,13.18-8.22,15.88a20,20,0,0,1-6.19,3.06l-14.35-12.59-.32-.27L786.46,397Z" transform="translate(0 -0.8)"/><path class="cls-13" d="M790.91,421.47a20,20,0,0,1-6.19,3.06l-14.35-12.59c3.54-2.2,8.93-6.06,11.69-10.56C782.06,401.38,793,411.3,790.91,421.47Z" transform="translate(0 -0.8)"/><path class="cls-13" d="M725.42,391.38s-6.2-4.07-8,1.42,8.13,10.9,11.8,7.61S725.42,391.38,725.42,391.38Z" transform="translate(0 -0.8)"/><path class="cls-14" d="M723.42,360s-8.2,4.25-5.24,18.53a84.07,84.07,0,0,0,10.39,25.6c4.87,8.15,8.76,12.46,18.8,13.49,8.3.85,16.59-1.82,23.63-6.05,10.76-6.47,17-10.44,19.61-20.15s-.81-21.34-4.06-27-13.95-25.57-26.76-20.74S723.42,360,723.42,360Z" transform="translate(0 -0.8)"/><path class="cls-9" d="M722,360.47s8.77,20-.42,31C721.53,391.47,710.17,368.12,722,360.47Z" transform="translate(0 -0.8)"/><path class="cls-9" d="M780.9,354.42s-32.55,21.58-59.79,6.14c0,0,31.63-27.61,47.56-18.72C781.37,348.92,780.9,354.42,780.9,354.42Z" transform="translate(0 -0.8)"/><path class="cls-9" d="M721.93,361.71s-6.19-4.71-1.6-12.17Z" transform="translate(0 -0.8)"/><path class="cls-9" d="M721.93,360.89l-10-3S714.88,366.79,721.93,360.89Z" transform="translate(0 -0.8)"/><path class="cls-4" d="M757.81,352.34s-2.49,8,.21,7.94S757.81,352.34,757.81,352.34Z" transform="translate(0 -0.8)"/><path class="cls-4" d="M763.17,360.21s-1.5,4.46.33,4.52S763.17,360.21,763.17,360.21Z" transform="translate(0 -0.8)"/><path class="cls-9" d="M754,374.7c.85,1.29,1,2.66.45,3.06s-1.78-.34-2.63-1.63-1.05-2.67-.45-3.07S753.15,373.4,754,374.7Z" transform="translate(0 -0.8)"/><path class="cls-9" d="M737.06,386.3c.85,1.3,1.05,2.67.45,3.06s-1.78-.33-2.63-1.63-1-2.66-.45-3.06S736.21,385,737.06,386.3Z" transform="translate(0 -0.8)"/><path class="cls-13" d="M741.33,397a3.7,3.7,0,1,1-3.9-3.48A3.7,3.7,0,0,1,741.33,397Z" transform="translate(0 -0.8)"/><path class="cls-13" d="M761.89,381.21a3.7,3.7,0,1,1-3.9-3.48A3.7,3.7,0,0,1,761.89,381.21Z" transform="translate(0 -0.8)"/><path class="cls-9" d="M727.26,379.34a1.66,1.66,0,0,0,.23,1.33,1.61,1.61,0,0,0,1.78.28,5.37,5.37,0,0,0,2-1.35,4.75,4.75,0,0,0,.78-1.06,2.35,2.35,0,0,0,0-2.23C730.44,373.7,727.53,377.74,727.26,379.34Z" transform="translate(0 -0.8)"/><path class="cls-9" d="M749,365a2.47,2.47,0,0,0-1.35,3c.5,1,1.81,1.34,3,1.43a6.66,6.66,0,0,0,3.26-.34,2.92,2.92,0,0,0,1.87-2.51C755.75,363.56,750.77,364.08,749,365Z" transform="translate(0 -0.8)"/><path class="cls-9" d="M757.22,392.62a.42.42,0,0,1-.37-.23.41.41,0,0,1,.19-.55c.17-.09,4.17-2.19,2.48-8a.41.41,0,0,1,.28-.51.41.41,0,0,1,.51.28c1.89,6.51-2.85,9-2.9,9A.41.41,0,0,1,757.22,392.62Z" transform="translate(0 -0.8)"/><path class="cls-13" d="M748.83,394.44a4.29,4.29,0,0,1-3.37.56c-3.1-1-4-4.95-1.17-6.69s-2-7.7-.26-9.13,6,5.36,6,5.36a10.46,10.46,0,0,1,1.51,3.62A5.78,5.78,0,0,1,748.83,394.44Z" transform="translate(0 -0.8)"/><path class="cls-17" d="M748.83,394.44a1.34,1.34,0,0,1-.12-.24c-.73-1.72.5-6,2.83-6A5.78,5.78,0,0,1,748.83,394.44Z" transform="translate(0 -0.8)"/><path class="cls-14" d="M774.76,363.69s3.24-15.07,11.55-12.76,10.63,17.23,1.94,22.63C788.25,373.56,775.94,367.89,774.76,363.69Z" transform="translate(0 -0.8)"/><path class="cls-9" d="M783.83,368.17a.42.42,0,0,1-.36-.2c0-.06-3.53-6.16.38-11.44a.42.42,0,0,1,.58-.09.41.41,0,0,1,.09.58c-3.59,4.85-.37,10.47-.33,10.53a.41.41,0,0,1-.15.56A.39.39,0,0,1,783.83,368.17Z" transform="translate(0 -0.8)"/><path class="cls-9" d="M782.79,365.61h0a.43.43,0,0,1-.37-.46,8.46,8.46,0,0,1,3.29-5.82.43.43,0,0,1,.58.09.42.42,0,0,1-.09.58,7.55,7.55,0,0,0-2.95,5.23A.42.42,0,0,1,782.79,365.61Z" transform="translate(0 -0.8)"/><path class="cls-15" d="M786.77,373.84s7.3-2.11,7-11.79-10.28-16.4-16.5-5.87" transform="translate(0 -0.8)"/><path class="cls-15" d="M831.34,535.43a40.58,40.58,0,0,1-.82,4.62" transform="translate(0 -0.8)"/><path class="cls-15" d="M833.05,492.09s-3.27,9.61-2.18,19.16a122.34,122.34,0,0,1,.82,20.24" transform="translate(0 -0.8)"/><path class="cls-7" d="M685.83,430.74s5.83-6.95,8.56-5.21S685.83,430.74,685.83,430.74Z" transform="translate(0 -0.8)"/><path class="cls-12" d="M634.06,508.3l.55,4.81s15.52,7,37.77.78l5.25-46.15-48,.1,4,36.87" transform="translate(0 -0.8)"/><path class="cls-10" d="M634.28,508.41l.59,5.3a42.64,42.64,0,0,0,14,2.88" transform="translate(0 -0.8)"/><line class="cls-10" x1="633.54" y1="500.9" x2="633.93" y2="504.41"/><ellipse class="cls-9" cx="653.63" cy="466.84" rx="24.07" ry="4.75"/><path class="cls-18" d="M658.58,471.1s8.39-32.88,34.24-44.44" transform="translate(0 -0.8)"/><path class="cls-18" d="M656.59,369.05c-6.64,16-11.26,33.32-10.33,50.81.48,9.13,3.15,17.05,5.65,25.71,2.05,7.07,3.19,15.93.07,22.85" transform="translate(0 -0.8)"/><path class="cls-18" d="M644.2,470.14s-17.57-57.89-55-70" transform="translate(0 -0.8)"/><path class="cls-7" d="M660.5,466.62s-3.23-12.65-.25-14.39S660.5,466.62,660.5,466.62Z" transform="translate(0 -0.8)"/><path class="cls-7" d="M663.23,459.55s9-.87,9-4.09S663.23,459.55,663.23,459.55Z" transform="translate(0 -0.8)"/><path class="cls-7" d="M666.08,453.47s1.37-9.05-.87-10.42S666.08,453.47,666.08,453.47Z" transform="translate(0 -0.8)"/><path class="cls-7" d="M668.19,450.12s8.81-.25,8.93-3.47S668.19,450.12,668.19,450.12Z" transform="translate(0 -0.8)"/><path class="cls-7" d="M670.18,446s-2-10.55,1-11.54S670.18,446,670.18,446Z" transform="translate(0 -0.8)"/><path class="cls-7" d="M673.52,442.93s8.94-.25,9.31-3S673.52,442.93,673.52,442.93Z" transform="translate(0 -0.8)"/><path class="cls-7" d="M676.5,438.46s-.74-8.93,1.86-9.93S676.5,438.46,676.5,438.46Z" transform="translate(0 -0.8)"/><path class="cls-7" d="M679.85,436s8.56.62,8.81-2S679.85,436,679.85,436Z" transform="translate(0 -0.8)"/><path class="cls-7" d="M683.57,432.13s-.74-6.95,2.49-7.81S683.57,432.13,683.57,432.13Z" transform="translate(0 -0.8)"/><path class="cls-7" d="M653.67,462.62s-5.6-5.87-4.8-8.67S653.67,462.62,653.67,462.62Z" transform="translate(0 -0.8)"/><path class="cls-7" d="M653.67,454.61s.41-8.94,3.07-8.53S653.67,454.61,653.67,454.61Z" transform="translate(0 -0.8)"/><path class="cls-7" d="M652.61,447.14s-5.34-9.07-7.34-6.4S652.61,447.14,652.61,447.14Z" transform="translate(0 -0.8)"/><path class="cls-7" d="M650.21,440.2s1.33-10,4-9.74S650.21,440.2,650.21,440.2Z" transform="translate(0 -0.8)"/><path class="cls-7" d="M648.74,433.13s-4.41-12.41-7.07-10S648.74,433.13,648.74,433.13Z" transform="translate(0 -0.8)"/><path class="cls-7" d="M646.6,421.79s2.54-9.07,4.94-7.61S646.6,421.79,646.6,421.79Z" transform="translate(0 -0.8)"/><path class="cls-7" d="M646.07,412.58s-2.4-8.8-4.94-7.74S646.07,412.58,646.07,412.58Z" transform="translate(0 -0.8)"/><path class="cls-7" d="M647,405.11s2.54-9.21,5.07-8.14S647,405.11,647,405.11Z" transform="translate(0 -0.8)"/><path class="cls-7" d="M648.47,395.37s-.67-10.81-4.14-8.67S648.47,395.37,648.47,395.37Z" transform="translate(0 -0.8)"/><path class="cls-7" d="M650.74,386s8.41-3.47,6.8-7.07S650.74,386,650.74,386Z" transform="translate(0 -0.8)"/><path class="cls-7" d="M654.61,375.36s-.53-12.41,3.2-12.15S654.61,375.36,654.61,375.36Z" transform="translate(0 -0.8)"/><path class="cls-7" d="M651.71,382s-.82-11.8-3.56-10.15S651.71,382,651.71,382Z" transform="translate(0 -0.8)"/><path class="cls-7" d="M643.2,466.87s5-10.84,2.41-13.45S643.2,466.87,643.2,466.87Z" transform="translate(0 -0.8)"/><path class="cls-7" d="M639.79,457.63s-6.63-9.44-9.24-6S639.79,457.63,639.79,457.63Z" transform="translate(0 -0.8)"/><path class="cls-7" d="M635.57,449.4s-2-11.45.8-12.25S635.57,449.4,635.57,449.4Z" transform="translate(0 -0.8)"/><path class="cls-7" d="M631.15,440c-.6-.2-10.85-11.25-11.65-6S631.15,440,631.15,440Z" transform="translate(0 -0.8)"/><path class="cls-7" d="M626.33,432.33s-2.21-11.65.6-12.46S626.33,432.33,626.33,432.33Z" transform="translate(0 -0.8)"/><path class="cls-7" d="M621.11,424.9s-12.86-8-13.46-3.82S621.11,424.9,621.11,424.9Z" transform="translate(0 -0.8)"/><path class="cls-7" d="M615.68,417.66s-6-9.44-3.41-11.44S615.68,417.66,615.68,417.66Z" transform="translate(0 -0.8)"/><path class="cls-7" d="M607.85,411s-14.86-3.22-13.66.6S607.85,411,607.85,411Z" transform="translate(0 -0.8)"/><path class="cls-7" d="M601.83,406.22s-8.84-10.05-5.43-11.85S601.83,406.22,601.83,406.22Z" transform="translate(0 -0.8)"/><path class="cls-7" d="M595.4,402.6S584,393.16,583,397.18,595.4,402.6,595.4,402.6Z" transform="translate(0 -0.8)"/><path class="cls-7" d="M671.76,469.5c0,1.62-8.37,2.94-18.71,2.94s-18.71-1.32-18.71-2.94,8.37-2.94,18.71-2.94S671.76,467.88,671.76,469.5Z" transform="translate(0 -0.8)"/><rect class="cls-9" x="518.27" y="315.59" width="138.48" height="42.92" rx="18.32"/><text class="cls-19" transform="translate(260.38 349.58)">Una propuesta <tspan class="cls-20" x="264.45" y="0">distinta</tspan><tspan x="0" y="38.56">para entrenar </tspan><tspan x="0" y="77.12">en casa</tspan></text><text class="cls-19" transform="translate(260.38 235.73)">woman fitness</text></g></g></svg>